<mxfile host="app.diagrams.net" agent="Mozilla/5.0 (Windows NT 10.0; Win64; x64) AppleWebKit/537.36 (KHTML, like Gecko) Chrome/133.0.0.0 Safari/537.36" version="26.0.14">
  <diagram id="yPxyJZ8AM_hMuL3Unpa9" name="gitflow">
    <mxGraphModel dx="2493" dy="1365" grid="1" gridSize="10" guides="1" tooltips="1" connect="1" arrows="1" fold="1" page="0" pageScale="1" pageWidth="850" pageHeight="1100" math="0" shadow="0">
      <root>
        <mxCell id="0" />
        <mxCell id="1" parent="0" />
        <mxCell id="3" value="" style="endArrow=none;dashed=1;html=1;fillColor=#dae8fc;strokeColor=#6c8ebf;" parent="1" source="12" target="7" edge="1">
          <mxGeometry width="50" height="50" relative="1" as="geometry">
            <mxPoint x="40" y="70" as="sourcePoint" />
            <mxPoint x="720" y="70" as="targetPoint" />
          </mxGeometry>
        </mxCell>
        <mxCell id="22" style="edgeStyle=orthogonalEdgeStyle;rounded=1;orthogonalLoop=1;jettySize=auto;html=1;dashed=1;endArrow=none;endFill=0;fillColor=#d5e8d4;strokeColor=#82b366;" parent="1" source="4" target="21" edge="1">
          <mxGeometry relative="1" as="geometry">
            <Array as="points">
              <mxPoint x="40" y="180" />
            </Array>
          </mxGeometry>
        </mxCell>
        <mxCell id="4" value="1.0" style="ellipse;whiteSpace=wrap;html=1;aspect=fixed;fillColor=#dae8fc;strokeColor=#6c8ebf;fontStyle=1;labelPosition=center;verticalLabelPosition=top;align=center;verticalAlign=bottom;fontColor=#0066CC;" parent="1" vertex="1">
          <mxGeometry x="30" y="60" width="20" height="20" as="geometry" />
        </mxCell>
        <mxCell id="7" value="Main" style="text;html=1;strokeColor=#6c8ebf;fillColor=#dae8fc;align=center;verticalAlign=middle;whiteSpace=wrap;rounded=0;" parent="1" vertex="1">
          <mxGeometry x="820" y="60" width="90" height="20" as="geometry" />
        </mxCell>
        <mxCell id="93" style="edgeStyle=orthogonalEdgeStyle;rounded=1;orthogonalLoop=1;jettySize=auto;html=1;dashed=1;endArrow=none;endFill=0;fontSize=12;fontColor=#FFB570;fillColor=#d5e8d4;strokeColor=#82b366;entryX=0;entryY=0.5;entryDx=0;entryDy=0;exitX=0.5;exitY=1;exitDx=0;exitDy=0;" parent="1" source="12" target="78" edge="1">
          <mxGeometry relative="1" as="geometry">
            <Array as="points">
              <mxPoint x="730" y="180" />
            </Array>
          </mxGeometry>
        </mxCell>
        <mxCell id="12" value="2.1" style="ellipse;whiteSpace=wrap;html=1;aspect=fixed;fillColor=#dae8fc;strokeColor=#6c8ebf;fontStyle=1;labelPosition=center;verticalLabelPosition=top;align=center;verticalAlign=bottom;fontColor=#0066CC;" parent="1" vertex="1">
          <mxGeometry x="720" y="60" width="20" height="20" as="geometry" />
        </mxCell>
        <mxCell id="13" value="" style="endArrow=none;dashed=1;html=1;fillColor=#dae8fc;strokeColor=#6c8ebf;" parent="1" source="6" target="12" edge="1">
          <mxGeometry width="50" height="50" relative="1" as="geometry">
            <mxPoint x="50" y="70" as="sourcePoint" />
            <mxPoint x="700" y="70" as="targetPoint" />
          </mxGeometry>
        </mxCell>
        <mxCell id="23" style="edgeStyle=orthogonalEdgeStyle;rounded=1;orthogonalLoop=1;jettySize=auto;html=1;dashed=1;endArrow=none;endFill=0;fillColor=#d5e8d4;strokeColor=#82b366;" parent="1" source="78" target="24" edge="1">
          <mxGeometry relative="1" as="geometry">
            <mxPoint x="700" y="180" as="targetPoint" />
          </mxGeometry>
        </mxCell>
        <mxCell id="73" style="edgeStyle=orthogonalEdgeStyle;rounded=1;orthogonalLoop=1;jettySize=auto;html=1;dashed=1;endArrow=none;endFill=0;fontSize=10;fontColor=#FFB570;fillColor=#e1d5e7;strokeColor=#9673a6;" parent="1" source="21" target="51" edge="1">
          <mxGeometry relative="1" as="geometry">
            <Array as="points">
              <mxPoint x="90" y="190" />
            </Array>
          </mxGeometry>
        </mxCell>
        <mxCell id="172" style="edgeStyle=orthogonalEdgeStyle;rounded=1;orthogonalLoop=1;jettySize=auto;html=1;dashed=1;endArrow=none;endFill=0;fontSize=12;fontColor=#FFB570;fillColor=#e1d5e7;strokeColor=#9673a6;" parent="1" source="21" target="63" edge="1">
          <mxGeometry relative="1" as="geometry">
            <Array as="points">
              <mxPoint x="90" y="240" />
            </Array>
          </mxGeometry>
        </mxCell>
        <mxCell id="21" value="" style="ellipse;whiteSpace=wrap;html=1;aspect=fixed;fillColor=#d5e8d4;strokeColor=#82b366;" parent="1" vertex="1">
          <mxGeometry x="80" y="170" width="20" height="20" as="geometry" />
        </mxCell>
        <mxCell id="24" value="Daily" style="text;html=1;strokeColor=#82b366;fillColor=#d5e8d4;align=center;verticalAlign=middle;whiteSpace=wrap;rounded=0;" parent="1" vertex="1">
          <mxGeometry x="820" y="170" width="90" height="20" as="geometry" />
        </mxCell>
        <mxCell id="25" value="" style="ellipse;whiteSpace=wrap;html=1;aspect=fixed;fillColor=#d5e8d4;strokeColor=#82b366;" parent="1" vertex="1">
          <mxGeometry x="166.97" y="170" width="20" height="20" as="geometry" />
        </mxCell>
        <mxCell id="26" style="edgeStyle=orthogonalEdgeStyle;rounded=1;orthogonalLoop=1;jettySize=auto;html=1;dashed=1;endArrow=none;endFill=0;fillColor=#d5e8d4;strokeColor=#82b366;" parent="1" source="21" target="25" edge="1">
          <mxGeometry relative="1" as="geometry">
            <mxPoint x="680" y="180" as="targetPoint" />
            <mxPoint x="110" y="180" as="sourcePoint" />
          </mxGeometry>
        </mxCell>
        <mxCell id="114" style="edgeStyle=orthogonalEdgeStyle;rounded=1;orthogonalLoop=1;jettySize=auto;html=1;dashed=1;endArrow=none;endFill=0;fontSize=12;fontColor=#FFB570;fillColor=#e1d5e7;strokeColor=#9673a6;entryX=0;entryY=0.5;entryDx=0;entryDy=0;" parent="1" source="27" target="65" edge="1">
          <mxGeometry relative="1" as="geometry">
            <Array as="points">
              <mxPoint x="280" y="240" />
            </Array>
          </mxGeometry>
        </mxCell>
        <mxCell id="27" value="" style="ellipse;whiteSpace=wrap;html=1;aspect=fixed;fillColor=#d5e8d4;strokeColor=#82b366;" parent="1" vertex="1">
          <mxGeometry x="269.97" y="170" width="20" height="20" as="geometry" />
        </mxCell>
        <mxCell id="28" style="edgeStyle=orthogonalEdgeStyle;rounded=1;orthogonalLoop=1;jettySize=auto;html=1;dashed=1;endArrow=none;endFill=0;fillColor=#d5e8d4;strokeColor=#82b366;" parent="1" source="25" target="27" edge="1">
          <mxGeometry relative="1" as="geometry">
            <mxPoint x="680" y="180" as="targetPoint" />
            <mxPoint x="240" y="180" as="sourcePoint" />
          </mxGeometry>
        </mxCell>
        <mxCell id="29" value="" style="ellipse;whiteSpace=wrap;html=1;aspect=fixed;fillColor=#d5e8d4;strokeColor=#82b366;" parent="1" vertex="1">
          <mxGeometry x="389.97" y="170" width="20" height="20" as="geometry" />
        </mxCell>
        <mxCell id="30" style="edgeStyle=orthogonalEdgeStyle;rounded=1;orthogonalLoop=1;jettySize=auto;html=1;dashed=1;endArrow=none;endFill=0;fillColor=#d5e8d4;strokeColor=#82b366;" parent="1" source="27" target="29" edge="1">
          <mxGeometry relative="1" as="geometry">
            <mxPoint x="680" y="180" as="targetPoint" />
            <mxPoint x="370" y="180" as="sourcePoint" />
          </mxGeometry>
        </mxCell>
        <mxCell id="177" style="edgeStyle=orthogonalEdgeStyle;rounded=1;orthogonalLoop=1;jettySize=auto;html=1;entryX=0;entryY=0.5;entryDx=0;entryDy=0;dashed=1;fillColor=#d5e8d4;strokeColor=#82b366;endArrow=none;endFill=0;" parent="1" source="6" target="92" edge="1">
          <mxGeometry relative="1" as="geometry">
            <Array as="points">
              <mxPoint x="650" y="180" />
            </Array>
          </mxGeometry>
        </mxCell>
        <mxCell id="6" value="2.0" style="ellipse;whiteSpace=wrap;html=1;aspect=fixed;fillColor=#dae8fc;strokeColor=#6c8ebf;fontStyle=1;labelPosition=center;verticalLabelPosition=top;align=center;verticalAlign=bottom;fontColor=#0066CC;" parent="1" vertex="1">
          <mxGeometry x="640" y="60" width="20" height="20" as="geometry" />
        </mxCell>
        <mxCell id="35" value="" style="endArrow=none;dashed=1;html=1;fillColor=#dae8fc;strokeColor=#6c8ebf;" parent="1" source="4" target="6" edge="1">
          <mxGeometry width="50" height="50" relative="1" as="geometry">
            <mxPoint x="49.9999999999917" y="70" as="sourcePoint" />
            <mxPoint x="690" y="70" as="targetPoint" />
            <Array as="points" />
          </mxGeometry>
        </mxCell>
        <mxCell id="74" style="edgeStyle=orthogonalEdgeStyle;rounded=1;orthogonalLoop=1;jettySize=auto;html=1;dashed=1;endArrow=none;endFill=0;fontSize=10;fontColor=#FFB570;fillColor=#e1d5e7;strokeColor=#9673a6;" parent="1" source="51" target="52" edge="1">
          <mxGeometry relative="1" as="geometry" />
        </mxCell>
        <mxCell id="147" style="edgeStyle=orthogonalEdgeStyle;rounded=1;orthogonalLoop=1;jettySize=auto;html=1;dashed=1;endArrow=none;endFill=0;fontSize=12;fontColor=#FFB570;jumpStyle=arc;jumpSize=6;" parent="1" source="51" target="69" edge="1">
          <mxGeometry relative="1" as="geometry">
            <Array as="points">
              <mxPoint x="130" y="280" />
            </Array>
          </mxGeometry>
        </mxCell>
        <mxCell id="76" style="edgeStyle=orthogonalEdgeStyle;rounded=1;orthogonalLoop=1;jettySize=auto;html=1;dashed=1;endArrow=none;endFill=0;fontSize=10;fontColor=#FFB570;fillColor=#e1d5e7;strokeColor=#9673a6;entryX=0;entryY=0.5;entryDx=0;entryDy=0;" parent="1" source="52" target="27" edge="1">
          <mxGeometry relative="1" as="geometry">
            <Array as="points">
              <mxPoint x="250" y="210" />
              <mxPoint x="250" y="180" />
            </Array>
          </mxGeometry>
        </mxCell>
        <mxCell id="52" value="" style="ellipse;whiteSpace=wrap;html=1;aspect=fixed;fontSize=10;fillColor=#e1d5e7;strokeColor=#9673a6;" parent="1" vertex="1">
          <mxGeometry x="209.97" y="200" width="20" height="20" as="geometry" />
        </mxCell>
        <mxCell id="152" style="edgeStyle=orthogonalEdgeStyle;rounded=1;orthogonalLoop=1;jettySize=auto;html=1;dashed=1;endArrow=none;endFill=0;fontSize=12;fontColor=#FFB570;" parent="1" source="63" target="89" edge="1">
          <mxGeometry relative="1" as="geometry">
            <Array as="points">
              <mxPoint x="110" y="310" />
            </Array>
          </mxGeometry>
        </mxCell>
        <mxCell id="63" value="" style="ellipse;whiteSpace=wrap;html=1;aspect=fixed;fontSize=10;fillColor=#e1d5e7;strokeColor=#9673a6;" parent="1" vertex="1">
          <mxGeometry x="100" y="230" width="20" height="20" as="geometry" />
        </mxCell>
        <mxCell id="99" style="edgeStyle=orthogonalEdgeStyle;rounded=1;orthogonalLoop=1;jettySize=auto;html=1;dashed=1;endArrow=none;endFill=0;fontSize=12;fontColor=#FFB570;fillColor=#e1d5e7;strokeColor=#9673a6;" parent="1" source="65" target="71" edge="1">
          <mxGeometry relative="1" as="geometry" />
        </mxCell>
        <mxCell id="156" style="edgeStyle=orthogonalEdgeStyle;rounded=1;orthogonalLoop=1;jettySize=auto;html=1;dashed=1;endArrow=none;endFill=0;fontSize=12;fontColor=#FFB570;fillColor=#f5f5f5;strokeColor=#666666;" parent="1" source="65" target="91" edge="1">
          <mxGeometry relative="1" as="geometry">
            <Array as="points">
              <mxPoint x="300" y="310" />
            </Array>
          </mxGeometry>
        </mxCell>
        <mxCell id="65" value="" style="ellipse;whiteSpace=wrap;html=1;aspect=fixed;fontSize=10;fillColor=#e1d5e7;strokeColor=#9673a6;" parent="1" vertex="1">
          <mxGeometry x="289.97" y="230" width="20" height="20" as="geometry" />
        </mxCell>
        <mxCell id="118" style="edgeStyle=orthogonalEdgeStyle;rounded=1;orthogonalLoop=1;jettySize=auto;html=1;exitX=1;exitY=0.5;exitDx=0;exitDy=0;entryX=0;entryY=0.5;entryDx=0;entryDy=0;dashed=1;endArrow=none;endFill=0;fontSize=12;fontColor=#FFB570;" parent="1" source="69" target="88" edge="1">
          <mxGeometry relative="1" as="geometry" />
        </mxCell>
        <mxCell id="69" value="" style="ellipse;whiteSpace=wrap;html=1;aspect=fixed;fontSize=10;fontColor=#333333;fillColor=#f5f5f5;strokeColor=#666666;" parent="1" vertex="1">
          <mxGeometry x="139.97" y="270" width="20" height="20" as="geometry" />
        </mxCell>
        <mxCell id="100" style="edgeStyle=orthogonalEdgeStyle;rounded=1;orthogonalLoop=1;jettySize=auto;html=1;dashed=1;endArrow=none;endFill=0;fontSize=12;fontColor=#FFB570;fillColor=#e1d5e7;strokeColor=#9673a6;entryX=0;entryY=0.5;entryDx=0;entryDy=0;" parent="1" source="71" target="29" edge="1">
          <mxGeometry relative="1" as="geometry">
            <mxPoint x="400" y="190" as="targetPoint" />
            <Array as="points">
              <mxPoint x="380" y="240" />
              <mxPoint x="380" y="180" />
            </Array>
          </mxGeometry>
        </mxCell>
        <mxCell id="71" value="" style="ellipse;whiteSpace=wrap;html=1;aspect=fixed;fontSize=10;fillColor=#e1d5e7;strokeColor=#9673a6;" parent="1" vertex="1">
          <mxGeometry x="345.97" y="230" width="20" height="20" as="geometry" />
        </mxCell>
        <mxCell id="82" style="edgeStyle=orthogonalEdgeStyle;rounded=1;orthogonalLoop=1;jettySize=auto;html=1;dashed=1;endArrow=none;endFill=0;fillColor=#d5e8d4;strokeColor=#82b366;" parent="1" source="29" target="92" edge="1">
          <mxGeometry relative="1" as="geometry">
            <mxPoint x="500" y="160" as="targetPoint" />
            <mxPoint x="460" y="160" as="sourcePoint" />
          </mxGeometry>
        </mxCell>
        <mxCell id="85" value="Current Feature&amp;nbsp;" style="text;html=1;strokeColor=#9673a6;fillColor=#e1d5e7;align=center;verticalAlign=middle;rounded=0;" parent="1" vertex="1">
          <mxGeometry x="820" y="200" width="90" height="20" as="geometry" />
        </mxCell>
        <mxCell id="86" value="Future Feature&amp;nbsp;" style="text;html=1;strokeColor=#9673a6;fillColor=#e1d5e7;align=center;verticalAlign=middle;whiteSpace=wrap;rounded=0;" parent="1" vertex="1">
          <mxGeometry x="820" y="230" width="90" height="20" as="geometry" />
        </mxCell>
        <mxCell id="151" style="edgeStyle=orthogonalEdgeStyle;rounded=1;orthogonalLoop=1;jettySize=auto;html=1;dashed=1;endArrow=none;endFill=0;fontSize=12;fontColor=#FFB570;jumpStyle=arc;entryX=0;entryY=0.5;entryDx=0;entryDy=0;" parent="1" source="88" target="52" edge="1">
          <mxGeometry relative="1" as="geometry">
            <Array as="points">
              <mxPoint x="200" y="280" />
              <mxPoint x="200" y="210" />
            </Array>
          </mxGeometry>
        </mxCell>
        <mxCell id="88" value="" style="ellipse;whiteSpace=wrap;html=1;aspect=fixed;fontSize=10;fontColor=#333333;fillColor=#f5f5f5;strokeColor=#666666;" parent="1" vertex="1">
          <mxGeometry x="170.97" y="270" width="20" height="20" as="geometry" />
        </mxCell>
        <mxCell id="153" style="edgeStyle=orthogonalEdgeStyle;rounded=1;orthogonalLoop=1;jettySize=auto;html=1;dashed=1;endArrow=none;endFill=0;fontSize=12;fontColor=#FFB570;" parent="1" source="89" target="90" edge="1">
          <mxGeometry relative="1" as="geometry" />
        </mxCell>
        <mxCell id="89" value="" style="ellipse;whiteSpace=wrap;html=1;aspect=fixed;fontSize=10;fontColor=#333333;fillColor=#f5f5f5;strokeColor=#666666;" parent="1" vertex="1">
          <mxGeometry x="179.97" y="300" width="20" height="20" as="geometry" />
        </mxCell>
        <mxCell id="154" style="edgeStyle=orthogonalEdgeStyle;rounded=1;orthogonalLoop=1;jettySize=auto;html=1;dashed=1;endArrow=none;endFill=0;fontSize=12;fontColor=#FFB570;" parent="1" source="90" target="91" edge="1">
          <mxGeometry relative="1" as="geometry" />
        </mxCell>
        <mxCell id="90" value="" style="ellipse;whiteSpace=wrap;html=1;aspect=fixed;fontSize=10;fontColor=#333333;fillColor=#f5f5f5;strokeColor=#666666;" parent="1" vertex="1">
          <mxGeometry x="240.00000000000003" y="300" width="20" height="20" as="geometry" />
        </mxCell>
        <mxCell id="157" style="edgeStyle=orthogonalEdgeStyle;rounded=1;orthogonalLoop=1;jettySize=auto;html=1;dashed=1;endArrow=none;endFill=0;fontSize=12;fontColor=#FFB570;entryX=0;entryY=0.5;entryDx=0;entryDy=0;" parent="1" source="91" target="71" edge="1">
          <mxGeometry relative="1" as="geometry">
            <Array as="points">
              <mxPoint x="340" y="310" />
              <mxPoint x="340" y="240" />
            </Array>
          </mxGeometry>
        </mxCell>
        <mxCell id="91" value="" style="ellipse;whiteSpace=wrap;html=1;aspect=fixed;fontSize=10;fontColor=#333333;fillColor=#f5f5f5;strokeColor=#666666;" parent="1" vertex="1">
          <mxGeometry x="312" y="300" width="20" height="20" as="geometry" />
        </mxCell>
        <mxCell id="102" value="Development" style="text;html=1;strokeColor=#666666;fillColor=#f5f5f5;align=center;verticalAlign=middle;whiteSpace=wrap;rounded=0;fontColor=#333333;" parent="1" vertex="1">
          <mxGeometry x="820" y="290" width="90" height="20" as="geometry" />
        </mxCell>
        <mxCell id="166" style="edgeStyle=orthogonalEdgeStyle;rounded=1;orthogonalLoop=1;jettySize=auto;html=1;dashed=1;endArrow=none;endFill=0;fontSize=12;fontColor=#FFB570;fillColor=#e1d5e7;strokeColor=#9673a6;" parent="1" source="92" target="165" edge="1">
          <mxGeometry relative="1" as="geometry">
            <Array as="points">
              <mxPoint x="675" y="210" />
            </Array>
          </mxGeometry>
        </mxCell>
        <mxCell id="169" style="edgeStyle=orthogonalEdgeStyle;rounded=1;orthogonalLoop=1;jettySize=auto;html=1;dashed=1;endArrow=none;endFill=0;fontSize=12;fontColor=#FFB570;fillColor=#e1d5e7;strokeColor=#9673a6;" parent="1" edge="1">
          <mxGeometry relative="1" as="geometry">
            <Array as="points">
              <mxPoint x="760" y="240" />
              <mxPoint x="835" y="240" />
            </Array>
            <mxPoint x="760.0000000000002" y="185" as="sourcePoint" />
            <mxPoint x="835.03" y="235" as="targetPoint" />
          </mxGeometry>
        </mxCell>
        <mxCell id="92" value="" style="ellipse;whiteSpace=wrap;html=1;aspect=fixed;fontSize=10;fillColor=#d5e8d4;strokeColor=#82b366;" parent="1" vertex="1">
          <mxGeometry x="664.97" y="170" width="20" height="20" as="geometry" />
        </mxCell>
        <mxCell id="116" style="edgeStyle=orthogonalEdgeStyle;rounded=1;orthogonalLoop=1;jettySize=auto;html=1;dashed=1;endArrow=none;endFill=0;fontSize=12;fontColor=#FFB570;fillColor=#e1d5e7;strokeColor=#9673a6;" parent="1" source="63" target="65" edge="1">
          <mxGeometry relative="1" as="geometry">
            <mxPoint x="159.97" y="260" as="sourcePoint" />
            <mxPoint x="209.97" y="260" as="targetPoint" />
          </mxGeometry>
        </mxCell>
        <mxCell id="78" value="" style="ellipse;whiteSpace=wrap;html=1;aspect=fixed;fontSize=12;fillColor=#d5e8d4;strokeColor=#82b366;" parent="1" vertex="1">
          <mxGeometry x="750" y="170" width="20" height="20" as="geometry" />
        </mxCell>
        <mxCell id="146" style="edgeStyle=orthogonalEdgeStyle;rounded=1;orthogonalLoop=1;jettySize=auto;html=1;dashed=1;endArrow=none;endFill=0;fillColor=#d5e8d4;strokeColor=#82b366;" parent="1" source="92" target="78" edge="1">
          <mxGeometry relative="1" as="geometry">
            <mxPoint x="760" y="160" as="targetPoint" />
            <mxPoint x="670" y="160" as="sourcePoint" />
            <Array as="points" />
          </mxGeometry>
        </mxCell>
        <mxCell id="167" style="edgeStyle=orthogonalEdgeStyle;rounded=1;orthogonalLoop=1;jettySize=auto;html=1;dashed=1;endArrow=none;endFill=0;fontSize=12;fontColor=#FFB570;fillColor=#e1d5e7;strokeColor=#9673a6;" parent="1" source="165" target="85" edge="1">
          <mxGeometry relative="1" as="geometry" />
        </mxCell>
        <mxCell id="165" value="" style="ellipse;whiteSpace=wrap;html=1;aspect=fixed;fontSize=12;fillColor=#e1d5e7;strokeColor=#9673a6;" parent="1" vertex="1">
          <mxGeometry x="695" y="200" width="20" height="20" as="geometry" />
        </mxCell>
        <mxCell id="170" style="edgeStyle=orthogonalEdgeStyle;rounded=1;orthogonalLoop=1;jettySize=auto;html=1;dashed=1;endArrow=none;endFill=0;fontSize=12;fontColor=#FFB570;fillColor=#e1d5e7;strokeColor=#9673a6;" parent="1" source="168" target="86" edge="1">
          <mxGeometry relative="1" as="geometry" />
        </mxCell>
        <mxCell id="174" style="edgeStyle=orthogonalEdgeStyle;rounded=1;orthogonalLoop=1;jettySize=auto;html=1;endArrow=none;endFill=0;dashed=1;" parent="1" source="168" target="173" edge="1">
          <mxGeometry relative="1" as="geometry">
            <Array as="points">
              <mxPoint x="705" y="300" />
            </Array>
          </mxGeometry>
        </mxCell>
        <mxCell id="168" value="" style="ellipse;whiteSpace=wrap;html=1;aspect=fixed;fontSize=12;fillColor=#e1d5e7;strokeColor=#9673a6;" parent="1" vertex="1">
          <mxGeometry x="750" y="230" width="20" height="20" as="geometry" />
        </mxCell>
        <mxCell id="51" value="" style="ellipse;whiteSpace=wrap;html=1;aspect=fixed;fontSize=10;fillColor=#e1d5e7;strokeColor=#9673a6;" parent="1" vertex="1">
          <mxGeometry x="119.97" y="200" width="20" height="20" as="geometry" />
        </mxCell>
        <mxCell id="175" style="edgeStyle=orthogonalEdgeStyle;rounded=1;orthogonalLoop=1;jettySize=auto;html=1;dashed=1;endArrow=none;endFill=0;" parent="1" source="173" target="102" edge="1">
          <mxGeometry relative="1" as="geometry" />
        </mxCell>
        <mxCell id="173" value="" style="ellipse;whiteSpace=wrap;html=1;aspect=fixed;fontSize=10;fontColor=#333333;fillColor=#f5f5f5;strokeColor=#666666;" parent="1" vertex="1">
          <mxGeometry x="725" y="290" width="20" height="20" as="geometry" />
        </mxCell>
        <mxCell id="HYkzzXsn--JDrpV8zATS-177" value="Main branch is the branch that is deployed and is production-ready. This is kept up to date with regular git pulls and any feature branches are merged to the main once the feature build is functioning as intended. with it assigning&amp;nbsp;" style="shape=callout;whiteSpace=wrap;html=1;perimeter=calloutPerimeter;fillColor=#dae8fc;strokeColor=#6c8ebf;align=left;" parent="1" vertex="1">
          <mxGeometry x="9.97" y="358" width="330.03" height="102" as="geometry" />
        </mxCell>
        <mxCell id="HYkzzXsn--JDrpV8zATS-178" value="Development branch is the main branch as your working on it this will update the main branch when you commit and push your changes to main" style="shape=callout;whiteSpace=wrap;html=1;perimeter=calloutPerimeter;fillColor=#f5f5f5;fontColor=#333333;strokeColor=#666666;align=left;" parent="1" vertex="1">
          <mxGeometry x="670" y="488" width="215.03" height="100" as="geometry" />
        </mxCell>
        <mxCell id="HYkzzXsn--JDrpV8zATS-179" value="Feature branches allow us to work on multiple features or changes at once, without interfering with the working code on the main branch. It allows the team to cancel changes that don&#39;t work or place features on hold for future work as needed. Once the feature is tested and performing as needed the feature branch must be merged back into the main branch before the change is committed and pushed.&amp;nbsp; &amp;nbsp;" style="shape=callout;whiteSpace=wrap;html=1;perimeter=calloutPerimeter;fillColor=#e1d5e7;strokeColor=#9673a6;align=left;" parent="1" vertex="1">
          <mxGeometry x="185.97" y="470" width="414.03" height="130" as="geometry" />
        </mxCell>
        <mxCell id="HYkzzXsn--JDrpV8zATS-180" value="The team must complete a git pull before starting any work to ensure we are all working on the most current version of the build. A git commit must be completed to add any new work to the repo, this will include work in-progress. Meaningful commit messages must be used for clarity of work completed or to advise how much of the feature has been complete if it is not ready to merge.&amp;nbsp;" style="shape=callout;whiteSpace=wrap;html=1;perimeter=calloutPerimeter;fillColor=#d5e8d4;strokeColor=#82b366;align=left;" parent="1" vertex="1">
          <mxGeometry x="444.97" y="358" width="420" height="112" as="geometry" />
        </mxCell>
        <mxCell id="HYkzzXsn--JDrpV8zATS-184" value="&lt;font style=&quot;color: rgb(0, 0, 0);&quot;&gt;1.0 MernWizards App&lt;/font&gt;&lt;div&gt;&lt;font style=&quot;color: rgb(0, 0, 0);&quot;&gt;&lt;font style=&quot;&quot;&gt;&quot;&lt;span style=&quot;white-space-collapse: break-spaces; margin: 0px; padding: 0px; border: 0px; font-family: &amp;quot;gg sans&amp;quot;, &amp;quot;Noto Sans&amp;quot;, &amp;quot;Helvetica Neue&amp;quot;, Helvetica, Arial, sans-serif; vertical-align: baseline; outline: 0px;&quot;&gt;A&lt;/span&gt;&lt;span style=&quot;white-space-collapse: break-spaces; margin: 0px; padding: 0px; border: 0px; font-family: &amp;quot;gg sans&amp;quot;, &amp;quot;Noto Sans&amp;quot;, &amp;quot;Helvetica Neue&amp;quot;, Helvetica, Arial, sans-serif; vertical-align: baseline; outline: 0px;&quot;&gt;-Ticket&lt;/span&gt;&lt;span style=&quot;white-space-collapse: break-spaces; margin: 0px; padding: 0px; border: 0px; font-family: &amp;quot;gg sans&amp;quot;, &amp;quot;Noto Sans&amp;quot;, &amp;quot;Helvetica Neue&amp;quot;, Helvetica, Arial, sans-serif; vertical-align: baseline; outline: 0px;&quot;&gt;-A&lt;/span&gt;&lt;span style=&quot;white-space-collapse: break-spaces; margin: 0px; padding: 0px; border: 0px; font-family: &amp;quot;gg sans&amp;quot;, &amp;quot;Noto Sans&amp;quot;, &amp;quot;Helvetica Neue&amp;quot;, Helvetica, Arial, sans-serif; vertical-align: baseline; outline: 0px;&quot;&gt;-Task&lt;/span&gt;&lt;span style=&quot;white-space-collapse: break-spaces; margin: 0px; padding: 0px; border: 0px; font-family: &amp;quot;gg sans&amp;quot;, &amp;quot;Noto Sans&amp;quot;, &amp;quot;Helvetica Neue&amp;quot;, Helvetica, Arial, sans-serif; vertical-align: baseline; outline: 0px;&quot;&gt;-It&quot; is &lt;/span&gt;&lt;/font&gt;&lt;span style=&quot;background-color: transparent;&quot;&gt;created and work begins.&lt;/span&gt;&lt;/font&gt;&lt;/div&gt;" style="shape=callout;whiteSpace=wrap;html=1;perimeter=calloutPerimeter;align=left;" parent="1" vertex="1">
          <mxGeometry x="39.97" y="-20" width="170.03" height="80" as="geometry" />
        </mxCell>
        <mxCell id="HYkzzXsn--JDrpV8zATS-185" value="Git pull before starting work each day and push updated work to git at regular intervals. Even small changes should be committed.&amp;nbsp;" style="shape=callout;whiteSpace=wrap;html=1;perimeter=calloutPerimeter;size=30;position=0.08;position2=0;direction=south;" parent="1" vertex="1">
          <mxGeometry x="430" y="210" width="202.5" height="80" as="geometry" />
        </mxCell>
        <mxCell id="HYkzzXsn--JDrpV8zATS-186" value="2.0 and 2.1 Show Git version control to ensure roll-back options to help future proof workflow.&amp;nbsp;" style="shape=callout;whiteSpace=wrap;html=1;perimeter=calloutPerimeter;align=left;" parent="1" vertex="1">
          <mxGeometry x="580" y="-20" width="210" height="80" as="geometry" />
        </mxCell>
        <mxCell id="HYkzzXsn--JDrpV8zATS-187" value="" style="shape=singleArrow;direction=south;whiteSpace=wrap;html=1;" parent="1" vertex="1">
          <mxGeometry x="50" y="100" width="20" height="50" as="geometry" />
        </mxCell>
        <mxCell id="HYkzzXsn--JDrpV8zATS-188" value="&lt;font style=&quot;font-size: 9px;&quot;&gt;Git pull current repo to the local&amp;nbsp;&lt;/font&gt;" style="text;html=1;align=center;verticalAlign=middle;resizable=0;points=[];autosize=1;strokeColor=none;fillColor=none;" parent="1" vertex="1">
          <mxGeometry x="59.97" y="100" width="150" height="30" as="geometry" />
        </mxCell>
        <mxCell id="HYkzzXsn--JDrpV8zATS-189" value="" style="shape=singleArrow;direction=south;whiteSpace=wrap;html=1;" parent="1" vertex="1">
          <mxGeometry x="60" y="200" width="10" height="40" as="geometry" />
        </mxCell>
        <mxCell id="HYkzzXsn--JDrpV8zATS-190" value="&lt;font style=&quot;font-size: 9px;&quot;&gt;Feature branch&lt;br&gt;&amp;nbsp;created&lt;/font&gt;" style="text;html=1;align=center;verticalAlign=middle;resizable=0;points=[];autosize=1;strokeColor=none;fillColor=none;" parent="1" vertex="1">
          <mxGeometry x="-10" y="203" width="80" height="40" as="geometry" />
        </mxCell>
        <mxCell id="HYkzzXsn--JDrpV8zATS-192" value="" style="shape=singleArrow;whiteSpace=wrap;html=1;" parent="1" vertex="1">
          <mxGeometry x="170.97" y="320" width="59.03" height="10" as="geometry" />
        </mxCell>
        <mxCell id="HYkzzXsn--JDrpV8zATS-193" value="&lt;font style=&quot;font-size: 9px;&quot;&gt;Working on Feature branch&lt;/font&gt;" style="text;html=1;align=center;verticalAlign=middle;resizable=0;points=[];autosize=1;strokeColor=none;fillColor=none;" parent="1" vertex="1">
          <mxGeometry x="125" y="328" width="130" height="30" as="geometry" />
        </mxCell>
        <mxCell id="HYkzzXsn--JDrpV8zATS-194" value="" style="shape=singleArrow;direction=north;whiteSpace=wrap;html=1;" parent="1" vertex="1">
          <mxGeometry x="394.97" y="200" width="10" height="40" as="geometry" />
        </mxCell>
        <mxCell id="HYkzzXsn--JDrpV8zATS-195" value="&lt;font style=&quot;font-size: 9px;&quot;&gt;Merging branch&lt;/font&gt;" style="text;html=1;align=center;verticalAlign=middle;resizable=0;points=[];autosize=1;strokeColor=none;fillColor=none;" parent="1" vertex="1">
          <mxGeometry x="354.97" y="240" width="90" height="30" as="geometry" />
        </mxCell>
        <mxCell id="HYkzzXsn--JDrpV8zATS-196" value="" style="shape=singleArrow;direction=north;whiteSpace=wrap;html=1;" parent="1" vertex="1">
          <mxGeometry x="612.5" y="100" width="20" height="50" as="geometry" />
        </mxCell>
        <mxCell id="HYkzzXsn--JDrpV8zATS-197" value="&lt;font style=&quot;font-size: 9px;&quot;&gt;Git push current form local to repo&amp;nbsp;&lt;/font&gt;" style="text;html=1;align=center;verticalAlign=middle;resizable=0;points=[];autosize=1;strokeColor=none;fillColor=none;" parent="1" vertex="1">
          <mxGeometry x="457.5" y="120" width="160" height="30" as="geometry" />
        </mxCell>
        <mxCell id="HYkzzXsn--JDrpV8zATS-199" value="&lt;span style=&quot;color: rgba(0, 0, 0, 0); font-family: monospace; font-size: 0px; text-align: start; text-wrap-mode: nowrap;&quot;&gt;%3CmxGraphModel%3E%3Croot%3E%3CmxCell%20id%3D%220%22%2F%3E%3CmxCell%20id%3D%221%22%20parent%3D%220%22%2F%3E%3CmxCell%20id%3D%222%22%20value%3D%22%26lt%3Bh1%20style%3D%26quot%3Bmargin-top%3A%200px%3B%26quot%3B%26gt%3BCreating%20a%20new%20feature%20branch%26lt%3B%2Fh1%26gt%3B%26lt%3Bp%26gt%3B%26lt%3Bbr%26gt%3B%26lt%3B%2Fp%26gt%3B%22%20style%3D%22text%3Bhtml%3D1%3BwhiteSpace%3Dwrap%3Boverflow%3Dhidden%3Brounded%3D0%3B%22%20vertex%3D%221%22%20parent%3D%221%22%3E%3CmxGeometry%20x%3D%221020%22%20y%3D%22110%22%20width%3D%22490%22%20height%3D%22100%22%20as%3D%22geometry%22%2F%3E%3C%2FmxCell%3E%3C%2Froot%3E%3C%2FmxGraphModel%3E&lt;/span&gt;" style="shape=ext;double=1;whiteSpace=wrap;html=1;aspect=fixed;" parent="1" vertex="1">
          <mxGeometry y="620" width="500" height="500" as="geometry" />
        </mxCell>
        <mxCell id="HYkzzXsn--JDrpV8zATS-200" value="&lt;h1 style=&quot;margin-top: 0px;&quot;&gt;Creating a new feature branch&lt;/h1&gt;&lt;p&gt;&lt;br&gt;&lt;/p&gt;" style="text;html=1;whiteSpace=wrap;overflow=hidden;rounded=0;" parent="1" vertex="1">
          <mxGeometry x="30" y="630" width="510" height="130" as="geometry" />
        </mxCell>
        <mxCell id="HYkzzXsn--JDrpV8zATS-201" value="&lt;font face=&quot;Lucida Console&quot; style=&quot;&quot;&gt;&lt;font style=&quot;font-size: 16px;&quot;&gt;$ git checkout -b newfeature&amp;nbsp;&lt;/font&gt;&lt;br&gt;&lt;/font&gt;&lt;font face=&quot;Verdana&quot;&gt;# This will create and switch you to a new branch called &quot;newfeature&quot;&lt;/font&gt;" style="rounded=1;whiteSpace=wrap;html=1;align=left;fillColor=#E6D0DE;spacingLeft=10;" parent="1" vertex="1">
          <mxGeometry x="30" y="680" width="439" height="60" as="geometry" />
        </mxCell>
        <mxCell id="HYkzzXsn--JDrpV8zATS-202" value="&lt;h1 style=&quot;margin-top: 0px;&quot;&gt;Merging a feature branch&lt;/h1&gt;&lt;p&gt;&lt;span style=&quot;color: rgba(0, 0, 0, 0); font-family: monospace; font-size: 0px; text-wrap-mode: nowrap;&quot;&gt;%3CmxGraphModel%3E%3Croot%3E%3CmxCell%20id%3D%220%22%2F%3E%3CmxCell%20id%3D%221%22%20parent%3D%220%22%2F%3E%3CmxCell%20id%3D%222%22%20value%3D%22%26lt%3Bfont%20face%3D%26quot%3BLucida%20Console%26quot%3B%20style%3D%26quot%3B%26quot%3B%26gt%3B%26lt%3Bfont%20style%3D%26quot%3Bfont-size%3A%2016px%3B%26quot%3B%26gt%3B%24%20git%20checkout%20-b%20newfeature%20develop%26lt%3B%2Ffont%26gt%3B%26lt%3Bbr%26gt%3B%26lt%3B%2Ffont%26gt%3B%26lt%3Bfont%20face%3D%26quot%3BVerdana%26quot%3B%26gt%3B%23%20This%20will%20create%20and%20switch%20you%20to%20a%20new%20branch%20called%20%26quot%3Bnewfeature%26quot%3B%26lt%3B%2Ffont%26gt%3B%22%20style%3D%22rounded%3D1%3BwhiteSpace%3Dwrap%3Bhtml%3D1%3Balign%3Dleft%3BfillColor%3D%23E6D0DE%3B%22%20vertex%3D%221%22%20parent%3D%221%22%3E%3CmxGeometry%20x%3D%221030%22%20y%3D%22150%22%20width%3D%22460%22%20height%3D%2260%22%20as%3D%22geometry%22%2F%3E%3C%2FmxCell%3E%3C%2Froot%3E%3C%2FmxGraphModel%3E&amp;nbsp;&lt;/span&gt;&lt;/p&gt;" style="text;html=1;whiteSpace=wrap;overflow=hidden;rounded=0;" parent="1" vertex="1">
          <mxGeometry x="30" y="760" width="490" height="180" as="geometry" />
        </mxCell>
        <mxCell id="HYkzzXsn--JDrpV8zATS-203" value="&lt;font face=&quot;Lucida Console&quot; style=&quot;&quot;&gt;&lt;font style=&quot;font-size: 16px;&quot;&gt;$ git checkout develop&lt;/font&gt;&lt;br&gt;&lt;/font&gt;&lt;font face=&quot;Verdana&quot;&gt;# This will switch you to a new branch called &quot;develop&quot;&lt;/font&gt;&lt;div&gt;&lt;font face=&quot;Verdana&quot;&gt;&lt;br&gt;&lt;/font&gt;&lt;/div&gt;&lt;div&gt;&lt;font face=&quot;Lucida Console&quot;&gt;&lt;font style=&quot;font-size: 16px;&quot;&gt;$ git merge --no-ff newfeature&amp;nbsp;&lt;/font&gt;&lt;br&gt;&lt;/font&gt;&lt;font face=&quot;Verdana&quot;&gt;# This will merge a feature branch called &quot;newfeature&quot; and create a new commit object to keep history of full history of the branch&lt;/font&gt;&lt;/div&gt;&lt;div&gt;&lt;br&gt;&lt;/div&gt;" style="rounded=1;whiteSpace=wrap;html=1;align=left;fillColor=#67AB9F;strokeColor=#82b366;fontColor=#000000;spacingLeft=10;" parent="1" vertex="1">
          <mxGeometry x="30" y="810" width="450" height="150" as="geometry" />
        </mxCell>
        <mxCell id="HYkzzXsn--JDrpV8zATS-205" value="&lt;h1 style=&quot;margin-top: 0px;&quot;&gt;Delete a feature branch&lt;/h1&gt;&lt;p&gt;&lt;span style=&quot;color: rgba(0, 0, 0, 0); font-family: monospace; font-size: 0px; text-wrap-mode: nowrap;&quot;&gt;%3CmxGraphModel%3E%3Croot%3E%3CmxCell%20id%3D%220%22%2F%3E%3CmxCell%20id%3D%221%22%20parent%3D%220%22%2F%3E%3CmxCell%20id%3D%222%22%20value%3D%22%26lt%3Bfont%20face%3D%26quot%3BLucida%20Console%26quot%3B%20style%3D%26quot%3B%26quot%3B%26gt%3B%26lt%3Bfont%20style%3D%26quot%3Bfont-size%3A%2016px%3B%26quot%3B%26gt%3B%24%20git%20checkout%20-b%20newfeature%20develop%26lt%3B%2Ffont%26gt%3B%26lt%3Bbr%26gt%3B%26lt%3B%2Ffont%26gt%3B%26lt%3Bfont%20face%3D%26quot%3BVerdana%26quot%3B%26gt%3B%23%20This%20will%20create%20and%20switch%20you%20to%20a%20new%20branch%20called%20%26quot%3Bnewfeature%26quot%3B%26lt%3B%2Ffont%26gt%3B%22%20style%3D%22rounded%3D1%3BwhiteSpace%3Dwrap%3Bhtml%3D1%3Balign%3Dleft%3BfillColor%3D%23E6D0DE%3B%22%20vertex%3D%221%22%20parent%3D%221%22%3E%3CmxGeometry%20x%3D%221030%22%20y%3D%22150%22%20width%3D%22460%22%20height%3D%2260%22%20as%3D%22geometry%22%2F%3E%3C%2FmxCell%3E%3C%2Froot%3E%3C%2FmxGraphModel%3E&amp;nbsp;&lt;/span&gt;&lt;/p&gt;" style="text;html=1;whiteSpace=wrap;overflow=hidden;rounded=0;" parent="1" vertex="1">
          <mxGeometry x="40" y="980" width="490" height="140" as="geometry" />
        </mxCell>
        <mxCell id="y0npenWiHMmh3R3XYcSP-181" value="&lt;p style=&quot;box-sizing: inherit; margin: 0px 0px 1.5em; padding: 0px; border: 0px; font-variant-numeric: inherit; font-variant-east-asian: inherit; font-variant-alternates: inherit; font-variant-position: inherit; font-variant-emoji: inherit; font-stretch: inherit; line-height: inherit; font-optical-sizing: inherit; font-size-adjust: inherit; font-kerning: inherit; font-feature-settings: inherit; font-variation-settings: inherit; vertical-align: baseline; min-width: 100%; text-align: start; background-color: rgb(255, 255, 255); color: rgb(10, 10, 35);&quot;&gt;&lt;font style=&quot;font-size: 24px;&quot; face=&quot;Tahoma&quot; color=&quot;#0a0a23&quot;&gt;Creating meaning consistent commit messages&lt;/font&gt;&lt;/p&gt;&lt;blockquote style=&quot;margin: 0 0 0 40px; border: none; padding: 0px;&quot;&gt;&lt;p style=&quot;box-sizing: inherit; margin: 0px 0px 1.5em; padding: 0px; border: 0px; font-variant-numeric: inherit; font-variant-east-asian: inherit; font-variant-alternates: inherit; font-variant-position: inherit; font-variant-emoji: inherit; font-stretch: inherit; line-height: inherit; font-optical-sizing: inherit; font-size-adjust: inherit; font-kerning: inherit; font-feature-settings: inherit; font-variation-settings: inherit; vertical-align: baseline; min-width: 100%; text-align: start; color: rgb(10, 10, 35);&quot;&gt;&lt;font style=&quot;font-size: 14px;&quot; face=&quot;Tahoma&quot; color=&quot;#0a0a23&quot;&gt;&lt;b style=&quot;background-color: rgb(230, 230, 230);&quot;&gt;feat &lt;/b&gt;– a new feature is introduced with the changes&lt;/font&gt;&lt;/p&gt;&lt;p style=&quot;box-sizing: inherit; margin: 0px 0px 1.5em; padding: 0px; border: 0px; font-variant-numeric: inherit; font-variant-east-asian: inherit; font-variant-alternates: inherit; font-variant-position: inherit; font-variant-emoji: inherit; font-stretch: inherit; line-height: inherit; font-optical-sizing: inherit; font-size-adjust: inherit; font-kerning: inherit; font-feature-settings: inherit; font-variation-settings: inherit; vertical-align: baseline; min-width: 100%; text-align: start; color: rgb(10, 10, 35);&quot;&gt;&lt;font style=&quot;font-size: 14px;&quot; face=&quot;Tahoma&quot; color=&quot;#0a0a23&quot;&gt;&lt;b style=&quot;background-color: rgb(230, 230, 230);&quot;&gt;fix &lt;/b&gt;– a bug fix has&lt;/font&gt;&lt;font style=&quot;background-color: light-dark(rgb(255, 255, 255), rgb(18, 18, 18)); font-size: 14px;&quot;&gt;&lt;font face=&quot;Tahoma&quot; color=&quot;#0a0a23&quot;&gt; occu&lt;/font&gt;&lt;font face=&quot;Tahoma&quot; color=&quot;#0a0a23&quot;&gt;rred&lt;/font&gt;&lt;/font&gt;&lt;/p&gt;&lt;p style=&quot;box-sizing: inherit; margin: 0px 0px 1.5em; padding: 0px; border: 0px; font-variant-numeric: inherit; font-variant-east-asian: inherit; font-variant-alternates: inherit; font-variant-position: inherit; font-variant-emoji: inherit; font-stretch: inherit; line-height: inherit; font-optical-sizing: inherit; font-size-adjust: inherit; font-kerning: inherit; font-feature-settings: inherit; font-variation-settings: inherit; vertical-align: baseline; min-width: 100%; text-align: start; color: rgb(10, 10, 35);&quot;&gt;&lt;font style=&quot;font-size: 14px;&quot; face=&quot;Tahoma&quot; color=&quot;#0a0a23&quot;&gt;&lt;b style=&quot;background-color: rgb(230, 230, 230);&quot;&gt;chore &lt;/b&gt;– changes that do not relate to a fix or feature and don&#39;t modify src or test files (for example updating dependencies&lt;/font&gt;&lt;font style=&quot;background-color: light-dark(rgb(255, 255, 255), rgb(18, 18, 18)); font-size: 12px;&quot; face=&quot;Tahoma&quot; color=&quot;#0a0a23&quot;&gt;)&lt;/font&gt;&lt;/p&gt;&lt;p style=&quot;box-sizing: inherit; margin: 0px 0px 1.5em; padding: 0px; border: 0px; font-variant-numeric: inherit; font-variant-east-asian: inherit; font-variant-alternates: inherit; font-variant-position: inherit; font-variant-emoji: inherit; font-stretch: inherit; line-height: inherit; font-optical-sizing: inherit; font-size-adjust: inherit; font-kerning: inherit; font-feature-settings: inherit; font-variation-settings: inherit; vertical-align: baseline; min-width: 100%; text-align: start; color: rgb(10, 10, 35);&quot;&gt;&lt;font style=&quot;font-size: 14px;&quot; face=&quot;Tahoma&quot; color=&quot;#0a0a23&quot;&gt;&lt;b style=&quot;background-color: rgb(230, 230, 230);&quot;&gt;refactor &lt;/b&gt;– refactored code that neither fixes a bug nor adds a feature&lt;/font&gt;&lt;/p&gt;&lt;p style=&quot;box-sizing: inherit; margin: 0px 0px 1.5em; padding: 0px; border: 0px; font-variant-numeric: inherit; font-variant-east-asian: inherit; font-variant-alternates: inherit; font-variant-position: inherit; font-variant-emoji: inherit; font-stretch: inherit; line-height: inherit; font-optical-sizing: inherit; font-size-adjust: inherit; font-kerning: inherit; font-feature-settings: inherit; font-variation-settings: inherit; vertical-align: baseline; min-width: 100%; text-align: start; color: rgb(10, 10, 35);&quot;&gt;&lt;font style=&quot;font-size: 14px;&quot;&gt;&lt;font face=&quot;Tahoma&quot; color=&quot;#0a0a23&quot;&gt;&lt;b style=&quot;background-color: rgb(230, 230, 230);&quot;&gt;docs &lt;/b&gt;– updates to documentation such as a the README &lt;/font&gt;&lt;font style=&quot;background-color: light-dark(rgb(255, 255, 255), rgb(18, 18, 18));&quot; face=&quot;Tahoma&quot; color=&quot;#0a0a23&quot;&gt;or other markdown files&lt;/font&gt;&lt;/font&gt;&lt;/p&gt;&lt;p style=&quot;box-sizing: inherit; margin: 0px 0px 1.5em; padding: 0px; border: 0px; font-variant-numeric: inherit; font-variant-east-asian: inherit; font-variant-alternates: inherit; font-variant-position: inherit; font-variant-emoji: inherit; font-stretch: inherit; line-height: inherit; font-optical-sizing: inherit; font-size-adjust: inherit; font-kerning: inherit; font-feature-settings: inherit; font-variation-settings: inherit; vertical-align: baseline; min-width: 100%; text-align: start; color: rgb(10, 10, 35);&quot;&gt;&lt;font style=&quot;font-size: 14px;&quot; face=&quot;Tahoma&quot; color=&quot;#0a0a23&quot;&gt;&lt;b style=&quot;background-color: rgb(230, 230, 230);&quot;&gt;style &lt;/b&gt;– changes that do not affect the meaning of the code, likely related to&amp;nbsp;&lt;/font&gt;&lt;/p&gt;&lt;p style=&quot;box-sizing: inherit; margin: 0px 0px 1.5em; padding: 0px; border: 0px; font-variant-numeric: inherit; font-variant-east-asian: inherit; font-variant-alternates: inherit; font-variant-position: inherit; font-variant-emoji: inherit; font-stretch: inherit; line-height: inherit; font-optical-sizing: inherit; font-size-adjust: inherit; font-kerning: inherit; font-feature-settings: inherit; font-variation-settings: inherit; vertical-align: baseline; min-width: 100%; text-align: start; background-color: rgb(255, 255, 255); color: rgb(10, 10, 35);&quot;&gt;&lt;span style=&quot;color: light-dark(rgb(10, 10, 35), rgb(226, 226, 248)); font-family: Tahoma; background-color: light-dark(rgb(255, 255, 255), rgb(18, 18, 18));&quot;&gt;&lt;font style=&quot;font-size: 14px;&quot;&gt;code formatting such as white-space, missing semi-colons, and so on.&lt;/font&gt;&lt;/span&gt;&lt;/p&gt;&lt;p style=&quot;box-sizing: inherit; margin: 0px 0px 1.5em; padding: 0px; border: 0px; font-variant-numeric: inherit; font-variant-east-asian: inherit; font-variant-alternates: inherit; font-variant-position: inherit; font-variant-emoji: inherit; font-stretch: inherit; line-height: inherit; font-optical-sizing: inherit; font-size-adjust: inherit; font-kerning: inherit; font-feature-settings: inherit; font-variation-settings: inherit; vertical-align: baseline; min-width: 100%; text-align: start; color: rgb(10, 10, 35);&quot;&gt;&lt;font style=&quot;font-size: 14px;&quot; face=&quot;Tahoma&quot; color=&quot;#0a0a23&quot;&gt;&lt;b style=&quot;background-color: rgb(230, 230, 230);&quot;&gt;test &lt;/b&gt;– including new or correcting previous tests&lt;/font&gt;&lt;/p&gt;&lt;p style=&quot;box-sizing: inherit; margin: 0px 0px 1.5em; padding: 0px; border: 0px; font-variant-numeric: inherit; font-variant-east-asian: inherit; font-variant-alternates: inherit; font-variant-position: inherit; font-variant-emoji: inherit; font-stretch: inherit; line-height: inherit; font-optical-sizing: inherit; font-size-adjust: inherit; font-kerning: inherit; font-feature-settings: inherit; font-variation-settings: inherit; vertical-align: baseline; min-width: 100%; text-align: start; color: rgb(10, 10, 35);&quot;&gt;&lt;font style=&quot;font-size: 14px;&quot; face=&quot;Tahoma&quot; color=&quot;#0a0a23&quot;&gt;&lt;span style=&quot;background-color: rgb(230, 230, 230);&quot;&gt;&lt;b style=&quot;&quot;&gt;perf&lt;/b&gt; &lt;/span&gt;– performance improvements&lt;/font&gt;&lt;/p&gt;&lt;p style=&quot;box-sizing: inherit; margin: 0px 0px 1.5em; padding: 0px; border: 0px; font-variant-numeric: inherit; font-variant-east-asian: inherit; font-variant-alternates: inherit; font-variant-position: inherit; font-variant-emoji: inherit; font-stretch: inherit; line-height: inherit; font-optical-sizing: inherit; font-size-adjust: inherit; font-kerning: inherit; font-feature-settings: inherit; font-variation-settings: inherit; vertical-align: baseline; min-width: 100%; text-align: start; color: rgb(10, 10, 35);&quot;&gt;&lt;font style=&quot;font-size: 14px;&quot; face=&quot;Tahoma&quot; color=&quot;#0a0a23&quot;&gt;&lt;b style=&quot;background-color: rgb(230, 230, 230);&quot;&gt;ci &lt;/b&gt;– continuous integration related&lt;/font&gt;&lt;/p&gt;&lt;p style=&quot;box-sizing: inherit; margin: 0px 0px 1.5em; padding: 0px; border: 0px; font-variant-numeric: inherit; font-variant-east-asian: inherit; font-variant-alternates: inherit; font-variant-position: inherit; font-variant-emoji: inherit; font-stretch: inherit; line-height: inherit; font-optical-sizing: inherit; font-size-adjust: inherit; font-kerning: inherit; font-feature-settings: inherit; font-variation-settings: inherit; vertical-align: baseline; min-width: 100%; text-align: start; color: rgb(10, 10, 35);&quot;&gt;&lt;font style=&quot;font-size: 14px;&quot; face=&quot;Tahoma&quot; color=&quot;#0a0a23&quot;&gt;&lt;b style=&quot;background-color: rgb(230, 230, 230);&quot;&gt;build &lt;/b&gt;– changes that affect the build system or external dependencies&lt;/font&gt;&lt;/p&gt;&lt;p style=&quot;box-sizing: inherit; margin: 0px 0px 1.5em; padding: 0px; border: 0px; font-variant-numeric: inherit; font-variant-east-asian: inherit; font-variant-alternates: inherit; font-variant-position: inherit; font-variant-emoji: inherit; font-stretch: inherit; line-height: inherit; font-optical-sizing: inherit; font-size-adjust: inherit; font-kerning: inherit; font-feature-settings: inherit; font-variation-settings: inherit; vertical-align: baseline; min-width: 100%; text-align: start; color: rgb(10, 10, 35);&quot;&gt;&lt;font style=&quot;font-size: 14px;&quot; face=&quot;Tahoma&quot; color=&quot;#0a0a23&quot;&gt;&lt;b style=&quot;background-color: rgb(230, 230, 230);&quot;&gt;revert &lt;/b&gt;– reverts a previous &lt;/font&gt;&lt;font style=&quot;background-color: light-dark(rgb(255, 255, 255), rgb(18, 18, 18)); font-size: 14px;&quot; face=&quot;Tahoma&quot; color=&quot;#0a0a23&quot;&gt;commit&lt;/font&gt;&lt;/p&gt;&lt;/blockquote&gt;" style="rounded=0;whiteSpace=wrap;html=1;direction=south;" vertex="1" parent="1">
          <mxGeometry x="520" y="620" width="600" height="500" as="geometry" />
        </mxCell>
        <mxCell id="HYkzzXsn--JDrpV8zATS-206" value="&lt;font style=&quot;&quot; face=&quot;Lucida Console&quot;&gt;&lt;font style=&quot;font-size: 16px;&quot;&gt;$ git branch -d newfeature&amp;nbsp;&lt;/font&gt;&lt;br&gt;&lt;/font&gt;&lt;font face=&quot;Verdana&quot;&gt;# This will delete the feature branch called &quot;newfeature&quot;&lt;/font&gt;" style="rounded=1;whiteSpace=wrap;html=1;align=left;fillColor=#CC4B6D;fontColor=#FFFFFF;spacingLeft=10;" parent="1" vertex="1">
          <mxGeometry x="30" y="1022" width="440" height="60" as="geometry" />
        </mxCell>
      </root>
    </mxGraphModel>
  </diagram>
</mxfile>
